{"title":"Zwarte Sneeuw 1996 4DVDrip Dutch Klam","uid":8090882,"size":10001571175,"categoryP":"video","categoryS":"movies","magnet":"?xt=urn:btih:deee165b8cbba43126310e870f7571116ff13a29&amp;dn=Zwarte+Sneeuw+1996+4DVDrip+Dutch+Klam&amp;tr=udp%3A%2F%2Ftracker.openbittorrent.com%3A80&amp;tr=udp%3A%2F%2Fopen.demonii.com%3A1337&amp;tr=udp%3A%2F%2Ftracker.coppersurfer.tk%3A6969&amp;tr=udp%3A%2F%2Fexodus.desync.com%3A6969","seeders":1,"leechers":0,"uploader":"Klambake","files":-1,"time":1359717049,"description":"With: Tamar van den Dop, Tom Jansen and Ariane Schluter\n\nNederlands gesproken,\nEva Bender (Tamar van den Dop) werkt als au-pair in Frankrijk. Wanneer ze haar vriendin Tessa (Ariane Schluter) te gast heeft, krijgt ze ook bezoek van haar ouders (Tom Jansen en Truus te Selle) die duidelijk met iets in hun maag zitten. Wat er is willen ze Eva nog niet vertellen en een dag later krijgen ze een ongeluk waarbij haar moeder overlijdt en haar vader in een coma raakt. Hierna gaat Eva op zoek naar de geheimen van haar ouders.\n\nDutch spoken,\nWhen Eva's father is hospitalised after getting into a coma, she goes out to investigate his life. She discovers that her father wasn't a real nice guy, he was involved in a Russian drug syndicate. The deeper she digs into his past, the more she finds out about her father's past and the deeper she gets into his trouble herself. In the end she is totally mixed up in the whole plot and has big trouble getting out.\n &lt;a href=&quot;\nhttp://www.imdb.com/title/tt0115427&quot; rel=&quot;nofollow&quot; target=&quot;_NEW&quot;&gt;\nhttp://www.imdb.com/title/tt0115427&lt;/a&gt;\t\n\n------------------------ Dutch Friends ------------------------\n---------------------------------------------------------------\n- Bezoek ook eens mijn vrienden op: &lt;a href=&quot; http://www.Film-Test.nl&quot; rel=&quot;nofollow&quot; target=&quot;_NEW&quot;&gt; http://www.Film-Test.nl&lt;/a&gt; --\n----- voor mijn Nederlandse Sync. ondertitels ---- en meer ----\n------- http://www.Film-Test.nl ---- Over Films en meer -------\n---------------------------------------------------------------\n\nGeneral:\n\nComplete name                    : Deel 01.avi\nFormat                           : AVI\nFormat/Info                      : Audio Video Interleave\nFile size                        : 802 MiB\nDuration                         : 52mn 25s\nOverall bit rate                 : 2 138 Kbps\n\nVideo:\n\nFormat                           : MPEG-4 Visual\nFormat profile                   : Simple@L3\nFormat settings, BVOP            : No\nFormat settings, QPel            : No\nFormat settings, GMC             : No warppoints\nFormat settings, Matrix          : Default (H.263)\nCodec ID                         : XVID\nCodec ID/Hint                    : XviD\nDuration                         : 52mn 25s\nBit rate                         : 1 679 Kbps\nWidth                            : 704 pixels\nHeight                           : 424 pixels\nDisplay aspect ratio             : 1.660\nFrame rate                       : 25.000 fps\nColor space                      : YUV\nChroma subsampling               : 4:2:0\nBit depth                        : 8 bits\nScan type                        : Progressive\nCompression mode                 : Lossy\nBits/(Pixel*Frame)               : 0.225\nStream size                      : 630 MiB (79%)\nWriting library                  : XviD 1.1.2 (UTC 2006-11-01)\n\nAudio:\n\nFormat                           : AC-3\nFormat/Info                      : Audio Coding 3\nMode extension                   : CM (complete main)\nCodec ID                         : 2000\nDuration                         : 52mn 25s\nBit rate mode                    : Constant\nBit rate                         : 448 Kbps\nChannel(s)                       : 6 channels\nChannel positions                : Front: L C R, Side: L R, LFE\nSampling rate                    : 48.0 KHz\nBit depth                        : 16 bits\nCompression mode                 : Lossy\nStream size                      : 168 MiB (21%)\nAlignment                        : Aligned on interleaves\nInterleave, duration             : 32 ms (0.80 video frame)\nInterleave, preload duration     : 64 ms","torrent":{"xt":"urn:btih:deee165b8cbba43126310e870f7571116ff13a29","amp;dn":"Zwarte+Sneeuw+1996+4DVDrip+Dutch+Klam","amp;tr":["udp%3A%2F%2Ftracker.openbittorrent.com%3A80","udp%3A%2F%2Fopen.demonii.com%3A1337","udp%3A%2F%2Ftracker.coppersurfer.tk%3A6969","udp%3A%2F%2Fexodus.desync.com%3A6969"],"infoHash":"deee165b8cbba43126310e870f7571116ff13a29","infoHashBuffer":{"type":"Buffer","data":[222,238,22,91,140,187,164,49,38,49,14,135,15,117,113,17,111,241,58,41]},"announce":[],"urlList":[]}}